<svg width="24" height="24" viewBox="0 0 24 24" fill="none" xmlns="http://www.w3.org/2000/svg">
<path d="M22.0001 13.63C22.0001 13.33 21.9001 13.03 21.9001 12.83C21.8336 12.1471 21.5925 11.4928 21.2001 10.93C20.7895 10.3643 20.2379 9.91611 19.6001 9.63002C18.9731 9.34468 18.2887 9.2078 17.6001 9.23002C16.9647 9.21016 16.3323 9.32576 15.7451 9.56913C15.1578 9.81251 14.629 10.1781 14.1939 10.6416C13.7588 11.105 13.4273 11.6558 13.2215 12.2573C13.0157 12.8587 12.9402 13.4971 13.0001 14.13C12.9373 14.7976 13.0312 15.4707 13.2742 16.0956C13.5173 16.7206 13.9028 17.2802 14.4001 17.73C15.3132 18.4453 16.4402 18.8327 17.6001 18.83C18.3612 18.8246 19.1105 18.6409 19.7878 18.2936C20.4651 17.9462 21.0515 17.445 21.5001 16.83C21.5678 16.7367 21.6087 16.6266 21.6181 16.5116C21.6276 16.3967 21.6053 16.2813 21.5537 16.1782C21.5022 16.075 21.4233 15.988 21.3256 15.9266C21.228 15.8652 21.1154 15.8318 21.0001 15.83H20.4001C20.1834 15.811 19.965 15.8367 19.7586 15.9056C19.5522 15.9744 19.3621 16.0848 19.2001 16.23C18.7845 16.5974 18.2544 16.8094 17.7001 16.83C17.2488 16.8374 16.8025 16.7344 16.4001 16.53C16.0815 16.3287 15.8215 16.0473 15.6459 15.7138C15.4704 15.3803 15.3857 15.0066 15.4001 14.63H21.0001C21.1337 14.6389 21.2677 14.619 21.393 14.5719C21.5183 14.5248 21.6321 14.4514 21.7268 14.3567C21.8215 14.2621 21.8949 14.1482 21.942 14.0229C21.9891 13.8976 22.0089 13.7636 22.0001 13.63ZM15.4001 13C15.4076 12.4725 15.6233 11.9693 16.0001 11.6C16.4315 11.2728 16.9587 11.0971 17.5001 11.1C18.0081 11.1136 18.4984 11.2888 18.9001 11.6C19.2769 11.9693 19.4926 12.4725 19.5001 13H15.4001ZM10.3001 11.9C10.6569 11.7507 10.9675 11.5091 11.2001 11.2C11.6042 10.6885 11.8165 10.0517 11.8001 9.40002C11.8325 8.71547 11.6198 8.04179 11.2001 7.50002C10.7883 7.07796 10.2869 6.75373 9.73311 6.55123C9.17927 6.34873 8.58704 6.27314 8.0001 6.33002H3.0001C2.86649 6.32118 2.73253 6.34099 2.6072 6.38812C2.48187 6.43524 2.36805 6.50861 2.27337 6.60329C2.17868 6.69797 2.10532 6.81179 2.05819 6.93712C2.01107 7.06245 1.99126 7.19641 2.0001 7.33002V17.53C1.99126 17.6636 2.01107 17.7976 2.05819 17.9229C2.10532 18.0482 2.17868 18.1621 2.27337 18.2567C2.36805 18.3514 2.48187 18.4248 2.6072 18.4719C2.73253 18.519 2.86649 18.5389 3.0001 18.53H7.6001C8.17191 18.5187 8.74127 18.4517 9.3001 18.33C9.80506 18.2349 10.283 18.0301 10.7001 17.73C11.0759 17.4736 11.3845 17.1306 11.6001 16.73C12.0051 16.1807 12.2161 15.5123 12.2001 14.83C12.2021 14.1955 12.0291 13.5726 11.7001 13.03C11.3781 12.5094 10.8821 12.1197 10.3001 11.93V11.9ZM4.5001 8.43002H7.1001C7.6065 8.43364 8.11044 8.50084 8.6001 8.63002C8.82906 8.69933 9.02559 8.84843 9.15402 9.05025C9.28245 9.25207 9.33428 9.49325 9.3001 9.73002C9.31289 9.94026 9.27401 10.1504 9.18685 10.3422C9.09969 10.5339 8.96691 10.7014 8.8001 10.83C8.40194 11.0459 7.95261 11.1496 7.5001 11.13H4.5001V8.43002ZM8.8001 16.23C8.3791 16.3609 7.94096 16.4283 7.5001 16.43H4.5001V13.13L7.6001 13.23C8.00835 13.2306 8.41374 13.2981 8.8001 13.43C9.04991 13.5395 9.26034 13.7227 9.4033 13.955C9.54625 14.1873 9.61491 14.4577 9.6001 14.73C9.61543 15.0291 9.54908 15.3267 9.40814 15.591C9.26721 15.8552 9.05702 16.0761 8.8001 16.23ZM14.7501 7.13002C14.7488 7.02459 14.7685 6.91996 14.8083 6.82229C14.848 6.72462 14.9069 6.6359 14.9814 6.56134C15.056 6.48678 15.1447 6.42791 15.2424 6.38818C15.34 6.34845 15.4447 6.32867 15.5501 6.33002H19.3501C19.5623 6.33002 19.7658 6.4143 19.9158 6.56433C20.0658 6.71436 20.1501 6.91785 20.1501 7.13002C20.1501 7.34219 20.0658 7.54567 19.9158 7.6957C19.7658 7.84573 19.5623 7.93002 19.3501 7.93002H15.5501C15.1501 7.93002 14.8501 7.63002 14.7501 7.13002Z" fill="black"/>
</svg>
