<svg width="24" height="24" viewBox="0 0 24 24" fill="none" xmlns="http://www.w3.org/2000/svg">
<path d="M11.9998 2.06001C9.58286 2.05526 7.24713 2.9322 5.43049 4.52643C3.61385 6.12067 2.44103 8.32275 2.13188 10.7199C1.82273 13.117 2.39848 15.5446 3.7512 17.5476C5.10392 19.5505 7.14074 20.9914 9.47983 21.6V19.29L8.99983 19.24L8.28983 19.17L7.87983 19.12C7.68695 19.1185 7.49641 19.0776 7.31983 19C6.99269 18.8318 6.72937 18.5615 6.56983 18.23C6.49474 18.0348 6.40097 17.8472 6.28983 17.67C6.05192 17.2977 5.76236 16.961 5.42983 16.67C5.39898 16.6402 5.37445 16.6044 5.3577 16.5649C5.34095 16.5254 5.33232 16.4829 5.33232 16.44C5.33232 16.3971 5.34095 16.3546 5.3577 16.3151C5.37445 16.2756 5.39898 16.2398 5.42983 16.21C5.47953 16.153 5.54683 16.1141 5.6211 16.0996C5.69536 16.0851 5.77233 16.0958 5.83983 16.13C6.26742 16.361 6.65835 16.6542 6.99983 17C7.19158 17.1878 7.36257 17.3956 7.50983 17.62C7.58639 17.7056 7.68779 17.765 7.79983 17.79H7.99983H8.30983L8.99983 17.69L9.66983 17.62C9.88138 17.0115 10.2895 16.4908 10.8298 16.14C10.2763 16.0722 9.73045 15.9517 9.19983 15.78C8.30052 15.5495 7.50939 15.0134 6.96205 14.2635C6.4147 13.5137 6.14523 12.5968 6.19983 11.67C6.21161 10.7385 6.56784 9.84439 7.19983 9.16001C6.95598 8.33108 6.92502 7.45406 7.10983 6.61001C7.1249 6.55418 7.15083 6.50186 7.18613 6.45606C7.22143 6.41026 7.26542 6.37186 7.31557 6.34307C7.36572 6.31428 7.42106 6.29566 7.47841 6.28827C7.53577 6.28088 7.59402 6.28487 7.64983 6.30001C8.49402 6.45677 9.26537 6.88101 9.84983 7.51001C11.475 6.9841 13.2247 6.9841 14.8498 7.51001C15.4211 6.89022 16.1736 6.46674 16.9998 6.30001C17.1124 6.2721 17.2315 6.28877 17.3321 6.34654C17.4327 6.4043 17.5071 6.49869 17.5398 6.61001C17.7217 7.41581 17.7011 8.25412 17.4798 9.05001C18.1852 9.74157 18.591 10.6824 18.6098 11.67C18.6098 13.86 17.2198 15.67 13.9698 16.13C14.3812 16.3903 14.7199 16.7507 14.9542 17.1774C15.1885 17.6041 15.3109 18.0832 15.3098 18.57V21.37C17.5312 20.5983 19.4066 19.0634 20.6021 17.0384C21.7977 15.0135 22.2359 12.63 21.8386 10.3122C21.4413 7.99445 20.2343 5.89291 18.4326 4.38173C16.6309 2.87055 14.3514 2.04782 11.9998 2.06001Z" fill="black"/>
</svg>
