<svg width="24" height="24" viewBox="0 0 24 24" fill="none" xmlns="http://www.w3.org/2000/svg">
<path d="M11.9999 1.55998C9.46781 1.56736 7.02466 2.49476 5.12545 4.16949C3.22624 5.84422 2.00042 8.15213 1.67626 10.6634C1.3521 13.1747 1.9517 15.7183 3.3634 17.8204C4.77511 19.9225 6.90268 21.4399 9.34995 22.09C11.3646 22.6303 13.4962 22.5431 15.4599 21.84C17.7901 21.0287 19.7571 19.4176 21.0116 17.2931C22.2661 15.1685 22.7268 12.668 22.3119 10.2358C21.8969 7.80364 20.6332 5.59733 18.7452 4.0089C16.8572 2.42046 14.4672 1.55277 11.9999 1.55998ZM14.7899 21C13.2318 21.4867 11.5731 21.5557 9.97995 21.2V19.29C9.98036 19.1667 9.93426 19.0477 9.85085 18.9569C9.76744 18.8661 9.65285 18.81 9.52995 18.8L7.92995 18.63C7.79752 18.6113 7.66911 18.5707 7.54995 18.51C7.31519 18.4056 7.12174 18.2262 6.99995 18C6.92995 17.83 6.85995 17.69 6.77995 17.53C6.88995 17.66 6.99995 17.81 7.11995 17.98C7.2733 18.1609 7.48596 18.2814 7.71995 18.32C7.82274 18.3349 7.92715 18.3349 8.02995 18.32L9.66995 18.15C9.76437 18.1415 9.85431 18.1058 9.92886 18.0472C10.0034 17.9887 10.0594 17.9097 10.0899 17.82C10.2367 17.4337 10.4773 17.0901 10.7899 16.82C10.8835 16.7367 10.9519 16.6288 10.9872 16.5086C11.0226 16.3884 11.0235 16.2607 10.9899 16.14C10.9539 16.0147 10.8831 15.9022 10.7858 15.8154C10.6885 15.7287 10.5685 15.6714 10.4399 15.65C9.87055 15.5663 9.31535 15.4048 8.78995 15.17C8.12145 14.8919 7.55667 14.4117 7.17472 13.7967C6.79277 13.1816 6.61277 12.4625 6.65995 11.74C6.66763 10.9029 6.99705 10.1008 7.57995 9.49998C7.6436 9.43551 7.68771 9.35435 7.70717 9.26587C7.72664 9.17739 7.72066 9.08521 7.68995 8.99998C7.47369 8.27039 7.42245 7.50182 7.53995 6.74998C8.26909 6.88197 8.94161 7.23043 9.46995 7.74998C9.51956 7.8432 9.59795 7.91789 9.69346 7.96294C9.78896 8.00799 9.89646 8.02098 9.99995 7.99998C11.5162 7.51997 13.1437 7.51997 14.6599 7.99998C14.7531 8.03098 14.8535 8.03325 14.948 8.0065C15.0425 7.97975 15.1268 7.92522 15.1899 7.84998C15.7134 7.37277 16.3448 7.02963 17.0299 6.84998C17.1818 7.53622 17.1715 8.24841 16.9999 8.92998C16.9815 9.01298 16.9838 9.09923 17.0064 9.18117C17.0291 9.2631 17.0715 9.33824 17.1299 9.39998C17.7485 9.99595 18.1077 10.8113 18.1299 11.67C18.1299 13.74 16.7799 15.13 14.3299 15.57C14.2014 15.5927 14.0822 15.652 13.9865 15.7406C13.8907 15.8293 13.8225 15.9436 13.7899 16.07C13.755 16.1915 13.7563 16.3205 13.7936 16.4413C13.8309 16.562 13.9026 16.6693 13.9999 16.75C14.261 16.9758 14.4704 17.2553 14.6136 17.5694C14.7568 17.8835 14.8306 18.2248 14.8299 18.57L14.7899 21ZM15.7899 20.62V18.57C15.7817 17.7868 15.5026 17.0306 14.9999 16.43C17.5899 15.78 19.0599 14.07 19.0599 11.67C19.0546 10.6516 18.6777 9.67013 17.9999 8.90998C18.1803 8.11339 18.1803 7.28657 17.9999 6.48998C17.9385 6.25101 17.7856 6.04578 17.5742 5.91856C17.3628 5.79134 17.1099 5.75234 16.8699 5.80998C16.0548 5.97732 15.2969 6.35284 14.6699 6.89998C13.145 6.48024 11.5349 6.48024 10.0099 6.89998C9.37101 6.34184 8.59398 5.96541 7.75995 5.80998C7.52404 5.7519 7.27478 5.78845 7.06547 5.91179C6.85617 6.03513 6.70343 6.23548 6.63995 6.46998C6.44617 7.303 6.45302 8.17013 6.65995 8.99998C6.02979 9.73302 5.67601 10.6635 5.65995 11.63C5.60921 12.5522 5.84541 13.4675 6.33606 14.2501C6.82671 15.0326 7.54771 15.6439 8.39995 16C8.82781 16.1898 9.27328 16.3372 9.72995 16.44C9.55994 16.6594 9.41566 16.8977 9.29995 17.15L8.09995 17.27H7.90995C7.74929 17.0439 7.57214 16.83 7.37995 16.63C6.97725 16.2328 6.51917 15.8959 6.01995 15.63C5.83931 15.5426 5.63314 15.5237 5.43961 15.5766C5.24608 15.6296 5.07827 15.7508 4.96726 15.918C4.85624 16.0851 4.80952 16.2868 4.83576 16.4857C4.86199 16.6847 4.9594 16.8673 5.10995 17C5.39976 17.2493 5.65233 17.5389 5.85995 17.86C5.96248 18.0179 6.04955 18.1853 6.11995 18.36C6.33414 18.7943 6.68564 19.1458 7.11995 19.36C7.34522 19.4749 7.58892 19.5494 7.83995 19.58L8.99995 19.74V20.93C6.91264 20.2258 5.13732 18.8138 3.98144 16.9386C2.82556 15.0633 2.3619 12.8428 2.67076 10.6617C2.97962 8.48058 4.04156 6.47615 5.67266 4.99553C7.30376 3.51492 9.40131 2.65136 11.6021 2.55441C13.8028 2.45747 15.9682 3.13323 17.7231 4.46467C19.4781 5.79612 20.7122 7.69941 21.2117 9.84492C21.7111 11.9904 21.4445 14.2431 20.458 16.2127C19.4715 18.1824 17.8272 19.745 15.8099 20.63L15.7899 20.62Z" fill="black"/>
</svg>
